<?xml version="1.0" encoding="UTF-8" standalone="no"?>
<!DOCTYPE svg PUBLIC "-//W3C//DTD SVG 1.1//EN" "http://www.w3.org/Graphics/SVG/1.1/DTD/svg11.dtd">
<svg xmlns="http://www.w3.org/2000/svg" xmlns:xlink="http://www.w3.org/1999/xlink" version="1.1" width="36" height="36" viewBox="0 0 36 36" xml:space="preserve">
<g transform="matrix(0.51 0.86 -0.86 0.51 18 18)">
    <g style="" vector-effect="non-scaling-stroke">
        <g transform="matrix(1 0 0 1 0 0)">
            <circle style="stroke: none; stroke-width: 1; stroke-dasharray: none; stroke-linecap: butt; stroke-dashoffset: 0; stroke-linejoin: miter; stroke-miterlimit: 4; fill: rgb(48,133,82); fill-opacity: 0.2; fill-rule: nonzero; opacity: 1;" vector-effect="non-scaling-stroke" cx="0" cy="0" r="10.11" />
        </g>
        <g transform="matrix(1 0 0 1 0 0)">
            <circle style="stroke: none; stroke-width: 1; stroke-dasharray: none; stroke-linecap: butt; stroke-dashoffset: 0; stroke-linejoin: miter; stroke-miterlimit: 4; fill: rgb(48,133,82); fill-rule: nonzero; opacity: 1;" vector-effect="non-scaling-stroke" cx="0" cy="0" r="6.74" />
        </g>
        <g transform="matrix(1 0 0 1 0.45 0.81)">
            <path style="stroke: none; stroke-width: 1; stroke-dasharray: none; stroke-linecap: butt; stroke-dashoffset: 0; stroke-linejoin: miter; stroke-miterlimit: 4; fill: rgb(250,250,251); fill-rule: nonzero; opacity: 1;" vector-effect="non-scaling-stroke" transform=" translate(-19.38, -19.74)" d="M 18.18 21.58 L 16.33 18.78 C 15.5 17.61 16.05 16.57 17.55 16.66 L 20.91 16.86 C 22.91 16.98 23.31 18.13 21.58 19.37 L 21.01 19.74 C 20.84 19.86 20.74 20.05 20.73 20.26 L 20.69 21.31 C 20.57 23.31 19.42 23.71 18.18 21.58 Z" stroke-linecap="round" />
        </g>
    </g>
</g>
</svg>